<svg xmlns="http://www.w3.org/2000/svg" viewBox="0 0 445.72 119.7"><defs><style>.cls-1{fill:#231815;}</style></defs><g id="レイヤー_2" data-name="レイヤー 2"><g id="レイヤー_1-2" data-name="レイヤー 1"><polyline class="cls-1" points="40.01 0.75 0 0.75 0 65.6 9.24 65.6 9.24 37.76 35.6 37.76 35.6 29.32 9.24 29.32 9.24 9.37 40.01 9.37 40.01 0.75"/><polyline class="cls-1" points="200.46 0.75 189.89 0.75 189.89 65.6 200.46 65.6 200.46 0.75"/><polyline class="cls-1" points="445.73 0.75 435.18 0.75 435.18 65.6 445.73 65.6 445.73 0.75"/><path class="cls-1" d="M304.72,42.59,314,13.76h.4l0,.11,9.2,28.72H304.72M318,.75h-7.79L287.42,65.6h9.79L302.06,51h24.16l0,.12,4.86,14.46h9.75L318,.75"/><polyline class="cls-1" points="371.53 0.76 361.84 0.76 361.84 65.6 371.53 65.6 371.53 0.76"/><polyline class="cls-1" points="410.17 1.08 398.4 1.08 371.92 33.89 398.88 65.51 411.14 65.51 383.93 33.58 410.17 1.08"/><path class="cls-1" d="M108.59.72H98.7V41c0,9.87-4.19,16.8-12.93,16.8s-13-6.93-13-16.8V.72H62.94V41.35c0,16.38,10.35,25.49,22.83,25.49s22.82-9.11,22.82-25.49V.72"/><path class="cls-1" d="M156,.72H145.69v40.9c0,9.87-3.46,15.92-12.93,15.92h-.42v9.3h.42C146,66.84,156,59.37,156,42.74V.72"/><path class="cls-1" d="M249.71,0c-11,0-20.05,8-20.05,18.29,0,9.31,5.92,16.58,19.24,19.06,7.34,1.37,11.76,4.27,11.76,10.55,0,5.31-5.2,9.89-11.14,9.89-5.4,0-10-3.84-10.6-8.68h-9.38c.69,9.6,9.42,17.24,20,17.24,11.21,0,20.41-8,20.41-18.45,0-9.52-5.42-15.87-17.44-18.56-7.35-1.63-13.57-4.08-13.57-11,0-5.4,4.85-9.74,10.79-9.74,5.49,0,9.94,3.7,10.6,8.53h9.38C269,7.57,260.27,0,249.71,0"/><path class="cls-1" d="M163.51,92.24a15.1,15.1,0,0,0-4.72-11c-3.29-3.11-7.75-4.7-13.27-4.7l-1.68.07a28.38,28.38,0,0,0-17.71,7.24A26.52,26.52,0,0,0,118,96.55a16.69,16.69,0,0,0-.64,4.42,11.58,11.58,0,0,0,2.54,7.51,11.15,11.15,0,0,0,5.91,3.76,1,1,0,0,0,.81,0l.28-.41a.77.77,0,0,0-.59-.87c-4.88-1.61-7.26-4.87-7.26-10a15.7,15.7,0,0,1,.82-4.79,25.07,25.07,0,0,1,8.21-11.59,26.07,26.07,0,0,1,15.46-6.22l1.41,0c4.91,0,8.74,1.55,11.39,4.62a14.5,14.5,0,0,1,3.32,9.67c0,6.79-3,12.76-8.9,17.74a33.2,33.2,0,0,1-18.79,7.8l-2.3.07a19.78,19.78,0,0,1-12.81-4.12,12.81,12.81,0,0,1-5-10.38,16.39,16.39,0,0,1,.54-4.1l.17-.75s-.25-.51-.25-.51a1,1,0,0,0-.81-.14,1.82,1.82,0,0,0-1.64,1.47,12.59,12.59,0,0,0-.29,2.75,15.86,15.86,0,0,0,5.37,11.93c4,3.78,9.48,5.55,16.14,5.28A36.28,36.28,0,0,0,149,114.28a33.31,33.31,0,0,0,10.93-10.87c2.45-4,3.66-7.74,3.6-11.17Z"/><path class="cls-1" d="M242.19,95.56a7.05,7.05,0,0,1,2.89,1.25,1,1,0,0,0,1,.27.76.76,0,0,0,.65-.8l-.17-.67v0c-1.12-2.17-2.33-3.22-3.7-3.22a2.11,2.11,0,0,0-1.36.6,1.74,1.74,0,0,0-.72,1.27C240.8,94.88,241.27,95.3,242.19,95.56Z"/><path class="cls-1" d="M331,107.46a.58.58,0,0,0-.53-.59.81.81,0,0,0-.7.23,39,39,0,0,1-12.42,7.49,31.82,31.82,0,0,1-11.23,2.31c-2.9,0-5.11-.53-6.55-1.58a3.61,3.61,0,0,1-1.7-3v-.07a4.32,4.32,0,0,1,.82-2.26,25.55,25.55,0,0,0,11.5-.5c2.2-.64,3.63-1.43,4.37-2.42a2.41,2.41,0,0,0,.54-1.41c0-1.63-1.72-2.46-5.13-2.46a21.51,21.51,0,0,0-10.4,3.09l-.92.54a.79.79,0,0,0-.53.24l-.5.43a13.47,13.47,0,0,0-1.95,1.6,44.14,44.14,0,0,1-8.13,4.88c-3.64,1.71-6.61,2.57-8.84,2.57-2,0-2.26-.91-2.26-1.61,0-1.49,1.08-4.07,3.2-7.66a3.91,3.91,0,0,0,.68-1.9c0-.54-.25-1.43-1.9-1.43a12.23,12.23,0,0,0-3.7.79,59.91,59.91,0,0,0-17,9.29l-.6.38c.55-2.73,2.64-5.7,6.27-8.84a1.37,1.37,0,0,0,.59-1c0-.16-.06-.72-.94-.72L262,104a3.92,3.92,0,0,0-2.13,1.12l-.62,1-.59.72a.8.8,0,0,0-.56.23,44.3,44.3,0,0,1-10.48,7.16,21.93,21.93,0,0,1-9.22,2.48c-3.49,0-5.18-1-5.18-3.13s1.72-5,5.12-8.81a1.9,1.9,0,0,0,.59-1.1.59.59,0,0,0-.22-.47c-.31-.24-.86-.25-1.85,0a4.38,4.38,0,0,0-2.55,1.23c0,.06-.47,1-.52,1.09-.39.46-.74.9-1.06,1.34a.84.84,0,0,0-.46.23A45.44,45.44,0,0,1,221,114.67c-3.38,1.58-6.1,2.31-8.08,2.17-1.58-.13-2.34-1.27-2.34-3.48,0-1.83.71-4.51,2.11-8,9.51-7.89,14.76-13.58,16-17.41a5.05,5.05,0,0,0,.3-1.56,1.74,1.74,0,0,0-.29-1,1.53,1.53,0,0,0-1.33-.57,7.77,7.77,0,0,0-3.61,1.39c-2.85,1.71-5.84,4.76-8.9,9.05a58.35,58.35,0,0,0-6.37,11.55.79.79,0,0,0-.67.23A42.71,42.71,0,0,1,197.27,114c-3.64,1.71-6.62,2.57-8.85,2.57-2,0-2.26-.91-2.26-1.61,0-1.49,1.08-4.07,3.21-7.66a4,4,0,0,0,.67-1.9c0-.54-.25-1.43-1.9-1.43a12.18,12.18,0,0,0-3.69.79,59.82,59.82,0,0,0-17,9.29l-.59.38c.54-2.73,2.63-5.7,6.26-8.84a1.38,1.38,0,0,0,.6-1c0-.16-.07-.72-.94-.72l-1.12.17a4,4,0,0,0-2.13,1.12l-.61,1c-4.21,5-6.27,8.49-6.27,10.57a1.37,1.37,0,0,0,.36,1,1.52,1.52,0,0,0,1.35.42,1.59,1.59,0,0,0,1.35-.78c.68-1.16,3.16-3.08,7.39-5.7a53,53,0,0,1,12-5.9,6,6,0,0,1,1.53-.26c.61,0,.61.21.61.34a3.7,3.7,0,0,1-1,1.94c-2.52,3.22-3.75,5.76-3.75,7.75,0,1.25.67,2.74,3.86,2.74A26.28,26.28,0,0,0,196,116a46.87,46.87,0,0,0,11.71-7.12c0,.09-.07.19-.11.28a9.45,9.45,0,0,0-.55,3.26c0,3.86,1.63,5.82,4.85,5.82,5.67,0,12-2.76,18.87-8.2a7.67,7.67,0,0,0-.77,3.13,4.32,4.32,0,0,0,2.5,4,11.12,11.12,0,0,0,5.24,1.1c5.4,0,11.42-2.51,17.92-7.46-1.8,2.6-2.69,4.57-2.69,5.93a1.37,1.37,0,0,0,.36,1,1.55,1.55,0,0,0,1.36.42,1.6,1.6,0,0,0,1.35-.78c.67-1.16,3.16-3.08,7.39-5.7a53.16,53.16,0,0,1,12-5.9,6.15,6.15,0,0,1,1.54-.26c.61,0,.61.21.61.34a3.67,3.67,0,0,1-1,1.94c-2.51,3.22-3.74,5.76-3.74,7.75,0,1.25.67,2.74,3.86,2.74a26.24,26.24,0,0,0,9.61-2.27,44.1,44.1,0,0,0,7.8-4.21,3.52,3.52,0,0,0-.06.91c.29,3.67,4.29,5.54,11.9,5.54A33,33,0,0,0,316,116.52a42.78,42.78,0,0,0,14.7-8.43l.05,0-.05,0Zm-21.83.85a20.52,20.52,0,0,1-5.82.79,22.32,22.32,0,0,1-3.28-.26,13.27,13.27,0,0,1,3.61-2.69,15.55,15.55,0,0,1,5-1.66l1.41-.09a5.17,5.17,0,0,1,1.89.27,1.35,1.35,0,0,1,.45,1,1.89,1.89,0,0,1-.55,1.25,3.61,3.61,0,0,1-.58.48A10.87,10.87,0,0,1,309.19,108.31Zm-10.21.56-.22.28-.22,0a12.12,12.12,0,0,1,3.44-2.84A11.92,11.92,0,0,0,299,108.87Zm-85.07-6.31c3.79-8.6,7.64-13.94,11.44-15.78a4.67,4.67,0,0,1,1.79-.58c.27,0,.4.06.4.43l-.14.78c-.46,1.46-2.08,3.72-4.84,6.74A113.11,113.11,0,0,1,213.91,102.56Z"/></g></g></svg>